<mxfile host="app.diagrams.net" modified="2022-02-10T09:23:14.102Z" agent="5.0 (Windows)" etag="a-SWfx01qh62s7xlTb9s" version="16.5.5" type="github">
  <diagram id="pRCtBCiAkHTa8poNPt8i" name="Page-1">
    <mxGraphModel dx="1209" dy="660" grid="1" gridSize="10" guides="1" tooltips="1" connect="1" arrows="1" fold="1" page="1" pageScale="1" pageWidth="827" pageHeight="1169" math="0" shadow="0">
      <root>
        <mxCell id="0" />
        <mxCell id="1" parent="0" />
        <mxCell id="R682WMClQqH8BEM3zGMM-1" value="&lt;div&gt;Datenbasis/ DB&lt;/div&gt;&lt;div&gt;strukturierte Sammlung von Daten. Anwendungsspezifische info&lt;br&gt;&lt;/div&gt;" style="rounded=1;whiteSpace=wrap;html=1;" vertex="1" parent="1">
          <mxGeometry x="170" y="470" width="160" height="95" as="geometry" />
        </mxCell>
        <mxCell id="R682WMClQqH8BEM3zGMM-2" value="Datenbanksystem/ DBS" style="rounded=1;whiteSpace=wrap;html=1;" vertex="1" parent="1">
          <mxGeometry x="180" y="170" width="130" height="70" as="geometry" />
        </mxCell>
        <mxCell id="R682WMClQqH8BEM3zGMM-3" value="&lt;div&gt;Datenbankmanagementsystem / DBMS&lt;/div&gt;&lt;div&gt;Anwendungsunabhängig Dienste&lt;br&gt;&lt;/div&gt;" style="rounded=1;whiteSpace=wrap;html=1;" vertex="1" parent="1">
          <mxGeometry x="170" y="310" width="170" height="100" as="geometry" />
        </mxCell>
        <mxCell id="R682WMClQqH8BEM3zGMM-4" value="" style="endArrow=classic;html=1;rounded=0;entryX=0.454;entryY=1;entryDx=0;entryDy=0;exitX=0.406;exitY=-0.04;exitDx=0;exitDy=0;exitPerimeter=0;entryPerimeter=0;" edge="1" parent="1" source="R682WMClQqH8BEM3zGMM-3" target="R682WMClQqH8BEM3zGMM-2">
          <mxGeometry width="50" height="50" relative="1" as="geometry">
            <mxPoint x="150" y="300" as="sourcePoint" />
            <mxPoint x="200" y="250" as="targetPoint" />
          </mxGeometry>
        </mxCell>
        <mxCell id="R682WMClQqH8BEM3zGMM-6" value="1" style="text;html=1;strokeColor=none;fillColor=none;align=center;verticalAlign=middle;whiteSpace=wrap;rounded=0;rotation=0;" vertex="1" parent="1">
          <mxGeometry x="220" y="270" width="60" height="30" as="geometry" />
        </mxCell>
        <mxCell id="R682WMClQqH8BEM3zGMM-7" value="1...n" style="text;html=1;strokeColor=none;fillColor=none;align=center;verticalAlign=middle;whiteSpace=wrap;rounded=0;" vertex="1" parent="1">
          <mxGeometry x="230" y="430" width="60" height="30" as="geometry" />
        </mxCell>
        <mxCell id="R682WMClQqH8BEM3zGMM-9" value="" style="endArrow=classic;html=1;rounded=0;entryX=0.406;entryY=1.01;entryDx=0;entryDy=0;entryPerimeter=0;" edge="1" parent="1" target="R682WMClQqH8BEM3zGMM-3">
          <mxGeometry width="50" height="50" relative="1" as="geometry">
            <mxPoint x="239" y="470" as="sourcePoint" />
            <mxPoint x="210" y="405" as="targetPoint" />
          </mxGeometry>
        </mxCell>
        <mxCell id="R682WMClQqH8BEM3zGMM-11" value="&lt;div&gt;&lt;span class=&quot;markedContent&quot; id=&quot;page67R_mcid7&quot; style=&quot;font-size: 11px&quot;&gt;&lt;span style=&quot;left: 84.2688px ; top: 119.346px ; font-size: 11px ; font-family: sans-serif ; transform: scalex(0.915239)&quot; dir=&quot;ltr&quot;&gt;Datenflüsse und Verarbeitungsreihenfolge sind unabhängig. Anwendungen greifen&lt;/span&gt;&lt;/span&gt;&lt;span class=&quot;markedContent&quot; id=&quot;page67R_mcid8&quot; style=&quot;font-size: 11px&quot;&gt;&lt;/span&gt;&lt;span class=&quot;markedContent&quot; id=&quot;page67R_mcid8&quot; style=&quot;font-size: 11px&quot;&gt;&lt;span style=&quot;left: 84.2688px ; top: 140.06px ; font-size: 11px ; font-family: sans-serif ; transform: scalex(0.912259)&quot; dir=&quot;ltr&quot;&gt; nicht direkt auf die Daten zu, sondern via DBMS.&lt;/span&gt;&lt;/span&gt;&lt;/div&gt;&lt;div&gt;&lt;span class=&quot;markedContent&quot; id=&quot;page67R_mcid8&quot; style=&quot;font-size: 11px&quot;&gt;&lt;span style=&quot;left: 84.2688px ; top: 140.06px ; font-size: 11px ; font-family: sans-serif ; transform: scalex(0.912259)&quot; dir=&quot;ltr&quot;&gt;&lt;br&gt;&lt;/span&gt;&lt;/span&gt;&lt;span class=&quot;markedContent&quot; id=&quot;page67R_mcid8&quot; style=&quot;font-size: 11px&quot;&gt;&lt;/span&gt;&lt;/div&gt;&lt;div style=&quot;font-size: 11px&quot;&gt;&lt;span class=&quot;markedContent&quot; id=&quot;page67R_mcid12&quot; style=&quot;font-size: 11px&quot;&gt;&lt;span style=&quot;left: 84.2688px ; top: 207.51px ; font-size: 11px ; font-family: sans-serif ; transform: scalex(0.922329)&quot; dir=&quot;ltr&quot;&gt;Die Daten sind strukturiert und die Struktur ist im Datenkatalog beschrieben. Der&lt;/span&gt;&lt;/span&gt;&lt;span class=&quot;markedContent&quot; id=&quot;page67R_mcid13&quot; style=&quot;font-size: 11px&quot;&gt;&lt;span style=&quot;left: 84.2688px ; top: 228.224px ; font-size: 11px ; font-family: sans-serif ; transform: scalex(0.919554)&quot; dir=&quot;ltr&quot;&gt; Datenkatalog (oder Data Dictionary) ist Bestandteil der Datenbank und enthält alle&lt;/span&gt;&lt;/span&gt;&lt;span class=&quot;markedContent&quot; id=&quot;page67R_mcid14&quot; style=&quot;font-size: 11px&quot;&gt;&lt;span style=&quot;left: 84.2688px ; top: 249.006px ; font-size: 11px ; font-family: sans-serif ; transform: scalex(0.918671)&quot; dir=&quot;ltr&quot;&gt; Daten über die gespeicherten Daten (Meta&lt;/span&gt;&lt;/span&gt;&lt;span class=&quot;markedContent&quot; id=&quot;page67R_mcid15&quot; style=&quot;font-size: 11px&quot;&gt;&lt;span style=&quot;left: 459.876px ; top: 249.006px ; font-size: 11px ; font-family: sans-serif&quot; dir=&quot;ltr&quot;&gt;-&lt;/span&gt;&lt;/span&gt;&lt;span class=&quot;markedContent&quot; id=&quot;page67R_mcid16&quot; style=&quot;font-size: 11px&quot;&gt;&lt;span style=&quot;left: 466.5px ; top: 249.006px ; font-size: 11px ; font-family: sans-serif ; transform: scalex(0.910946)&quot; dir=&quot;ltr&quot;&gt;Daten).&lt;/span&gt;&lt;/span&gt;&lt;/div&gt;&lt;div style=&quot;font-size: 11px&quot;&gt;&lt;span class=&quot;markedContent&quot; id=&quot;page67R_mcid16&quot; style=&quot;font-size: 11px&quot;&gt;&lt;span style=&quot;left: 466.5px ; top: 249.006px ; font-size: 11px ; font-family: sans-serif ; transform: scalex(0.910946)&quot; dir=&quot;ltr&quot;&gt;&lt;br&gt;&lt;/span&gt;&lt;/span&gt;&lt;/div&gt;&lt;div style=&quot;font-size: 11px&quot;&gt;&lt;span class=&quot;markedContent&quot; id=&quot;page67R_mcid20&quot;&gt;&lt;span style=&quot;left: 84.2688px ; top: 300.846px ; font-family: sans-serif ; transform: scalex(0.929459)&quot; dir=&quot;ltr&quot;&gt;Mehrbenutzerbetrieb: Gleichzeitiger Zugriff mehrerer Clients (Applikationen,&lt;/span&gt;&lt;/span&gt;&lt;span class=&quot;markedContent&quot; id=&quot;page67R_mcid21&quot;&gt;&lt;span style=&quot;left: 84.2688px ; top: 321.582px ; font-family: sans-serif ; transform: scalex(0.898206)&quot; dir=&quot;ltr&quot;&gt; Benutzer) auf die Daten des DBMS;&lt;/span&gt;&lt;/span&gt;&lt;span class=&quot;markedContent&quot; id=&quot;page67R_mcid16&quot; style=&quot;font-size: 11px&quot;&gt;&lt;span style=&quot;left: 466.5px ; top: 249.006px ; font-size: 11px ; font-family: sans-serif ; transform: scalex(0.910946)&quot; dir=&quot;ltr&quot;&gt;&lt;/span&gt;&lt;/span&gt;&lt;span class=&quot;markedContent&quot; id=&quot;page67R_mcid8&quot; style=&quot;font-size: 11px&quot;&gt;&lt;span style=&quot;left: 84.2688px ; top: 140.06px ; font-size: 11px ; font-family: sans-serif ; transform: scalex(0.912259)&quot; dir=&quot;ltr&quot;&gt;&lt;/span&gt;&lt;/span&gt;&lt;/div&gt;&lt;div&gt;&lt;br&gt;&lt;/div&gt;&lt;div&gt;&lt;span class=&quot;markedContent&quot; id=&quot;page67R_mcid27&quot;&gt;&lt;span style=&quot;left: 84.2688px ; top: 347.526px ; font-family: sans-serif ; transform: scalex(0.921081)&quot; dir=&quot;ltr&quot;&gt;Datenintegrität wird zentral vom DBMS gesichert; kontrollierte Redundanz in den&lt;/span&gt;&lt;/span&gt;&lt;span class=&quot;markedContent&quot; id=&quot;page67R_mcid28&quot;&gt;&lt;span style=&quot;left: 84.2688px ; top: 368.267px ; font-family: sans-serif ; transform: scalex(0.910065)&quot; dir=&quot;ltr&quot;&gt; Daten.&lt;/span&gt;&lt;/span&gt;&lt;/div&gt;" style="text;html=1;strokeColor=#d6b656;fillColor=#fff2cc;align=left;verticalAlign=middle;whiteSpace=wrap;rounded=0;opacity=60;fontSize=11;" vertex="1" parent="1">
          <mxGeometry x="370" y="250" width="290" height="210" as="geometry" />
        </mxCell>
      </root>
    </mxGraphModel>
  </diagram>
</mxfile>
